# xmcd CD database file
#
# Track frame offsets:
#	180
#	18949
#	38876
#	57418
#	83841
#	99334
#	114294
#	133609
#	151686
#	170666
#	187910
#	208677
#	226745
#	244977
#
# Disc length: 3503 seconds
#
# Revision: 0
# Processed by: cddbd v1.5.2PL0 Copyright (c) Steve Scherf et al.
# Submitted via: CDex 1.70beta2
#
DISCID=a90dad0e
DTITLE=Various Artist - Los Buenos Del Merengue Vol.5
DYEAR=1997
DGENRE=Merengue
TTITLE0=La perdiste
TTITLE1=El refranero
TTITLE2=No dejemos que muera el amor
TTITLE3=Come on baby (hi-nrg remix)
TTITLE4=Las cuarentonas
TTITLE5=Tan cansao
TTITLE6=Subeme el volumen
TTITLE7=La cucaracha
TTITLE8=La pediguena
TTITLE9=La robotcita
TTITLE10=El bembe
TTITLE11=La historia de Samuel (mariposa loca)
TTITLE12=No se le para
TTITLE13=Come on baby (edit remix)
EXTD=YEAR: 1997
EXTT0=
EXTT1=
EXTT2=
EXTT3=
EXTT4=
EXTT5=
EXTT6=
EXTT7=
EXTT8=
EXTT9=
EXTT10=
EXTT11=
EXTT12=
EXTT13=
PLAYORDER=
